  0
SECTION
  2
HEADER
  9
$EXTMIN
 10
-1.637500
 20
-15.068550
  9
$EXTMAX
 10
25.525000
 20
-2.930390
  0
ENDSEC
0
SECTION
2
TABLES
0
TABLE
0
LAYER
2
Background
62
1
0
ENDTAB
0
ENDSEC
0
SECTION
2
ENTITIES
  0
SOLID
 62
7
 10
0.075000
 20
-12.937500
 11
0.075000
 21
-5.037500
 12
3.325000
 22
-12.937500
 13
3.325000
 23
-5.037500
  0
LINE
  8
Background
  6
CONTINUOUS
 10
0.075000
 20
-5.037500
 11
3.325000
 21
-5.037500
 39
0
 62
0
  0
LINE
  8
Background
  6
CONTINUOUS
 10
3.325000
 20
-5.037500
 11
3.325000
 21
-12.937500
 39
0
 62
0
  0
LINE
  8
Background
  6
CONTINUOUS
 10
3.325000
 20
-12.937500
 11
0.075000
 21
-12.937500
 39
0
 62
0
  0
LINE
  8
Background
  6
CONTINUOUS
 10
0.075000
 20
-12.937500
 11
0.075000
 21
-5.037500
 39
0
 62
0
  0
LINE
  8
Background
  6
CONTINUOUS
 10
-1.587500
 20
-5.875000
 11
0.043750
 21
-5.875000
 39
0
 62
0
  0
LINE
  8
Background
  6
CONTINUOUS
 10
-1.553130
 20
-11.943700
 11
0.078125
 21
-11.943700
 39
0
 62
0
  0
LINE
  8
Background
  6
CONTINUOUS
 10
3.337500
 20
-11.925000
 11
4.968750
 21
-11.925000
 39
0
 62
0
  0
LINE
  8
Background
  6
CONTINUOUS
 10
-1.584380
 20
-7.937500
 11
0.046875
 21
-7.937500
 39
0
 62
0
  0
LINE
  8
Background
  6
CONTINUOUS
 10
3.368750
 20
-7.918750
 11
5.000000
 21
-7.918750
 39
0
 62
0
  0
LINE
  8
Background
  6
CONTINUOUS
 10
3.353120
 20
-5.887500
 11
4.984370
 21
-5.887500
 39
0
 62
0
  0
SOLID
 62
7
 10
10.212500
 20
-12.987500
 11
10.212500
 21
-5.087500
 12
13.462500
 22
-12.987500
 13
13.462500
 23
-5.087500
  0
LINE
  8
Background
  6
CONTINUOUS
 10
10.212500
 20
-5.087500
 11
13.462500
 21
-5.087500
 39
0
 62
0
  0
LINE
  8
Background
  6
CONTINUOUS
 10
13.462500
 20
-5.087500
 11
13.462500
 21
-12.987500
 39
0
 62
0
  0
LINE
  8
Background
  6
CONTINUOUS
 10
13.462500
 20
-12.987500
 11
10.212500
 21
-12.987500
 39
0
 62
0
  0
LINE
  8
Background
  6
CONTINUOUS
 10
10.212500
 20
-12.987500
 11
10.212500
 21
-5.087500
 39
0
 62
0
  0
LINE
  8
Background
  6
CONTINUOUS
 10
8.550000
 20
-5.925000
 11
10.181300
 21
-5.925000
 39
0
 62
0
  0
LINE
  8
Background
  6
CONTINUOUS
 10
8.584380
 20
-11.993700
 11
10.215600
 21
-11.993700
 39
0
 62
0
  0
LINE
  8
Background
  6
CONTINUOUS
 10
13.475000
 20
-11.975000
 11
15.106300
 21
-11.975000
 39
0
 62
0
  0
LINE
  8
Background
  6
CONTINUOUS
 10
8.553130
 20
-7.987500
 11
10.184400
 21
-7.987500
 39
0
 62
0
  0
LINE
  8
Background
  6
CONTINUOUS
 10
13.506300
 20
-7.968750
 11
15.137500
 21
-7.968750
 39
0
 62
0
  0
LINE
  8
Background
  6
CONTINUOUS
 10
13.490600
 20
-5.937500
 11
15.121900
 21
-5.937500
 39
0
 62
0
  0
SOLID
 62
7
 10
20.550000
 20
-12.962500
 11
20.550000
 21
-5.062500
 12
23.800000
 22
-12.962500
 13
23.800000
 23
-5.062500
  0
LINE
  8
Background
  6
CONTINUOUS
 10
20.550000
 20
-5.062500
 11
23.800000
 21
-5.062500
 39
0
 62
0
  0
LINE
  8
Background
  6
CONTINUOUS
 10
23.800000
 20
-5.062500
 11
23.800000
 21
-12.962500
 39
0
 62
0
  0
LINE
  8
Background
  6
CONTINUOUS
 10
23.800000
 20
-12.962500
 11
20.550000
 21
-12.962500
 39
0
 62
0
  0
LINE
  8
Background
  6
CONTINUOUS
 10
20.550000
 20
-12.962500
 11
20.550000
 21
-5.062500
 39
0
 62
0
  0
LINE
  8
Background
  6
CONTINUOUS
 10
18.887500
 20
-5.900000
 11
20.518800
 21
-5.900000
 39
0
 62
0
  0
LINE
  8
Background
  6
CONTINUOUS
 10
18.921900
 20
-11.968800
 11
20.553100
 21
-11.968800
 39
0
 62
0
  0
LINE
  8
Background
  6
CONTINUOUS
 10
23.812500
 20
-11.950000
 11
25.443800
 21
-11.950000
 39
0
 62
0
  0
LINE
  8
Background
  6
CONTINUOUS
 10
18.890600
 20
-7.962500
 11
20.521900
 21
-7.962500
 39
0
 62
0
  0
LINE
  8
Background
  6
CONTINUOUS
 10
23.843800
 20
-7.943750
 11
25.475000
 21
-7.943750
 39
0
 62
0
  0
LINE
  8
Background
  6
CONTINUOUS
 10
23.828100
 20
-5.912500
 11
25.459400
 21
-5.912500
 39
0
 62
0
  0
LINE
  8
Background
  6
DOT
 10
4.962600
 20
-5.912510
 11
8.600100
 21
-11.950000
 39
0
 62
0
  0
LINE
  8
Background
  6
DOT
 10
4.937600
 20
-7.912510
 11
8.500100
 21
-5.950010
 39
0
 62
0
  0
LINE
  8
Background
  6
DOT
 10
4.925100
 20
-11.975000
 11
10.000000
 21
-15.000000
 39
0
 62
0
  0
LINE
  8
Background
  6
DOT
 10
15.075100
 20
-7.962510
 11
18.825100
 21
-5.900010
 39
0
 62
0
  0
LINE
  8
Background
  6
DOT
 10
15.050100
 20
-11.975000
 11
19.950000
 21
-14.000000
 39
0
 62
0
  0
LINE
  8
Background
  6
DOT
 10
15.137600
 20
-5.900010
 11
18.950100
 21
-11.975000
 39
0
 62
0
  0
LINE
  8
Background
  6
DOT
 10
9.950000
 20
-15.000000
 11
25.375100
 21
-14.993600
 39
0
 62
0
  0
LINE
  8
Background
  6
DOT
 10
15.400000
 20
-3.000000
 11
18.850000
 21
-7.950000
 39
0
 62
0
  0
LINE
  8
Background
  6
DOT
 10
5.025000
 20
-4.062210
 11
8.550000
 21
-7.999710
 39
0
 62
0
  0
LINE
  8
Background
  6
DOT
 10
-1.525000
 20
-4.037210
 11
5.050000
 21
-4.050000
 39
0
 62
0
  0
LINE
  8
Background
  6
DOT
 10
-1.575000
 20
-2.999710
 11
15.366200
 21
-3.024710
 39
0
 62
0
  0
LINE
  8
Background
  6
DOT
 10
19.900100
 20
-13.975000
 11
25.375100
 21
-13.993600
 39
0
 62
0
0
ENDSEC
0
EOF
